<svg width="26" height="22" viewBox="0 0 26 22" fill="none" xmlns="http://www.w3.org/2000/svg">
<ellipse cx="13.0957" cy="11.0671" rx="12.4932" ry="10.9324" fill="#FFB400"/>
<g clip-path="url(#clip0_2_460)">
<path d="M13.096 5.75342C14.7461 5.75342 14.9519 5.75873 15.5993 5.7853C16.2461 5.81188 16.6864 5.90063 17.0739 6.03242C17.4747 6.16741 17.8123 6.35022 18.15 6.64517C18.4588 6.91083 18.6978 7.23218 18.8502 7.58687C19.0002 7.92539 19.1023 8.31121 19.1326 8.87719C19.1612 9.4437 19.1691 9.62386 19.1691 11.0678C19.1691 12.5117 19.163 12.6918 19.1326 13.2583C19.1023 13.8243 19.0002 14.2096 18.8502 14.5487C18.6982 14.9035 18.4592 15.225 18.15 15.4904C17.8463 15.7605 17.4791 15.9696 17.0739 16.1031C16.687 16.2344 16.2461 16.3237 15.5993 16.3502C14.9519 16.3752 14.7461 16.3821 13.096 16.3821C11.446 16.3821 11.2401 16.3768 10.5927 16.3502C9.94591 16.3237 9.50562 16.2344 9.11815 16.1031C8.71267 15.97 8.34537 15.7608 8.04201 15.4904C7.73314 15.2247 7.49418 14.9034 7.34178 14.5487C7.19117 14.2101 7.08975 13.8243 7.05939 13.2583C7.03084 12.6918 7.02295 12.5117 7.02295 11.0678C7.02295 9.62386 7.02902 9.4437 7.05939 8.87719C7.08975 8.31068 7.19117 7.92592 7.34178 7.58687C7.49375 7.23197 7.73277 6.91052 8.04201 6.64517C8.34546 6.37479 8.71273 6.16567 9.11815 6.03242C9.50562 5.90063 9.94531 5.81188 10.5927 5.7853C11.2401 5.76033 11.446 5.75342 13.096 5.75342ZM13.096 8.41059C12.2907 8.41059 11.5183 8.69054 10.9489 9.18886C10.3794 9.68718 10.0595 10.363 10.0595 11.0678C10.0595 11.7725 10.3794 12.4484 10.9489 12.9467C11.5183 13.445 12.2907 13.7249 13.096 13.7249C13.9013 13.7249 14.6737 13.445 15.2432 12.9467C15.8126 12.4484 16.1325 11.7725 16.1325 11.0678C16.1325 10.363 15.8126 9.68718 15.2432 9.18886C14.6737 8.69054 13.9013 8.41059 13.096 8.41059V8.41059ZM17.0435 8.27773C17.0435 8.10155 16.9635 7.93259 16.8212 7.80801C16.6788 7.68343 16.4857 7.61344 16.2844 7.61344C16.083 7.61344 15.8899 7.68343 15.7476 7.80801C15.6052 7.93259 15.5252 8.10155 15.5252 8.27773C15.5252 8.45392 15.6052 8.62288 15.7476 8.74746C15.8899 8.87204 16.083 8.94203 16.2844 8.94203C16.4857 8.94203 16.6788 8.87204 16.8212 8.74746C16.9635 8.62288 17.0435 8.45392 17.0435 8.27773ZM13.096 9.47346C13.5792 9.47346 14.0426 9.64143 14.3843 9.94042C14.726 10.2394 14.9179 10.6449 14.9179 11.0678C14.9179 11.4906 14.726 11.8961 14.3843 12.1951C14.0426 12.4941 13.5792 12.6621 13.096 12.6621C12.6128 12.6621 12.1494 12.4941 11.8077 12.1951C11.466 11.8961 11.2741 11.4906 11.2741 11.0678C11.2741 10.6449 11.466 10.2394 11.8077 9.94042C12.1494 9.64143 12.6128 9.47346 13.096 9.47346V9.47346Z" fill="#2B2B2B"/>
</g>
<defs>
<clipPath id="clip0_2_460">
<rect width="14.5753" height="12.7544" fill="white" transform="translate(5.80811 4.69043)"/>
</clipPath>
</defs>
</svg>
