<svg width="26" height="22" viewBox="0 0 26 22" fill="none" xmlns="http://www.w3.org/2000/svg">
<ellipse cx="13.3013" cy="11.0671" rx="12.4932" ry="10.9324" fill="#FFB400"/>
<g clip-path="url(#clip0_2_468)">
<path d="M10.2285 7.34758C10.2284 7.62947 10.1003 7.89976 9.87236 8.09899C9.64446 8.29822 9.33546 8.41006 9.01332 8.40992C8.69119 8.40978 8.38231 8.29766 8.15464 8.09824C7.92697 7.89881 7.79916 7.62841 7.79932 7.34652C7.79948 7.06463 7.9276 6.79434 8.1555 6.59511C8.3834 6.39588 8.6924 6.28404 9.01454 6.28418C9.33667 6.28432 9.64555 6.39644 9.87322 6.59586C10.1009 6.79529 10.2287 7.06569 10.2285 7.34758V7.34758ZM10.265 9.19697H7.83575V15.8505H10.265V9.19697ZM14.1032 9.19697H11.6861V15.8505H14.0789V12.359C14.0789 10.414 16.9757 10.2333 16.9757 12.359V15.8505H19.3746V11.6363C19.3746 8.35731 15.087 8.47954 14.0789 10.0898L14.1032 9.19697V9.19697Z" fill="#2B2B2B"/>
</g>
<defs>
<clipPath id="clip0_2_468">
<rect width="14.5753" height="12.7544" fill="white" transform="translate(6.01367 4.69043)"/>
</clipPath>
</defs>
</svg>
