<svg width="25" height="22" viewBox="0 0 25 22" fill="none" xmlns="http://www.w3.org/2000/svg">
<ellipse cx="12.4932" cy="10.9324" rx="12.4932" ry="10.9324" fill="#FFB400"/>
<g clip-path="url(#clip0_2_468)">
<path d="M9.42044 7.21282C9.42027 7.49471 9.29215 7.765 9.06425 7.96422C8.83636 8.16345 8.52735 8.2753 8.20522 8.27515C7.88308 8.27501 7.5742 8.1629 7.34653 7.96347C7.11886 7.76404 6.99105 7.49364 6.99121 7.21175C6.99137 6.92986 7.11949 6.65957 7.34739 6.46035C7.57529 6.26112 7.8843 6.14927 8.20643 6.14941C8.52857 6.14956 8.83744 6.26167 9.06511 6.4611C9.29278 6.66052 9.4206 6.93092 9.42044 7.21282V7.21282ZM9.45687 9.06221H7.02765V15.7158H9.45687V9.06221ZM13.295 9.06221H10.878V15.7158H13.2708V12.2242C13.2708 10.2792 16.1676 10.0985 16.1676 12.2242V15.7158H18.5665V11.5015C18.5665 8.22254 14.2789 8.34477 13.2708 9.95502L13.295 9.06221V9.06221Z" fill="#2B2B2B"/>
</g>
<defs>
<clipPath id="clip0_2_468">
<rect width="14.5753" height="12.7544" fill="white" transform="translate(5.20557 4.55566)"/>
</clipPath>
</defs>
</svg>
