<svg width="26" height="22" viewBox="0 0 26 22" fill="none" xmlns="http://www.w3.org/2000/svg">
<ellipse cx="12.6987" cy="11.0671" rx="12.4932" ry="10.9324" fill="#FFB400"/>
<g clip-path="url(#clip0_2_464)">
<path d="M18.8704 7.69645C18.4068 7.87591 17.9151 7.99377 17.4117 8.04613C17.9423 7.76842 18.3395 7.33136 18.5291 6.81639C18.0311 7.07573 17.4852 7.25749 16.9161 7.3558C16.5339 6.99792 16.0272 6.76057 15.4749 6.68066C14.9227 6.60074 14.3557 6.68273 13.8621 6.91389C13.3686 7.14504 12.9761 7.51241 12.7458 7.95887C12.5155 8.40533 12.4602 8.90588 12.5884 9.38269C11.5786 9.3384 10.5906 9.10875 9.68873 8.70866C8.78686 8.30856 7.99122 7.74696 7.35347 7.06032C7.12772 7.39962 7.0091 7.78532 7.00973 8.17793C7.00973 8.94851 7.45792 9.62928 8.13932 10.0279C7.73607 10.0167 7.3417 9.92145 6.98908 9.74992V9.77755C6.9892 10.2908 7.19215 10.7881 7.5635 11.1854C7.93486 11.5826 8.45177 11.8552 9.02659 11.957C8.65226 12.0457 8.25975 12.0588 7.87879 11.9952C8.04086 12.437 8.35674 12.8233 8.78221 13.1001C9.20768 13.377 9.72143 13.5304 10.2515 13.539C9.72468 13.9011 9.12144 14.1688 8.4763 14.3267C7.83116 14.4847 7.15678 14.5298 6.4917 14.4595C7.65268 15.1129 9.00418 15.4597 10.3845 15.4586C15.0565 15.4586 17.6115 12.0718 17.6115 9.13451C17.6115 9.03886 17.6084 8.94213 17.6036 8.84754C18.1009 8.53302 18.5301 8.1434 18.871 7.69698L18.8704 7.69645Z" fill="#2B2B2B"/>
</g>
<defs>
<clipPath id="clip0_2_464">
<rect width="14.5753" height="12.7544" fill="white" transform="translate(5.41113 4.69043)"/>
</clipPath>
</defs>
</svg>
