<svg width="33" height="30" viewBox="0 0 33 30" fill="none" xmlns="http://www.w3.org/2000/svg">
<g filter="url(#filter0_d_2_476)">
<ellipse cx="16.5068" cy="11.0671" rx="12.4932" ry="10.9324" fill="#FFB400"/>
<g clip-path="url(#clip0_2_476)">
<path d="M21.3589 10.8403C21.3091 10.0038 20.9766 9.19903 20.4036 8.52804C20.229 8.69259 20.0424 8.84703 19.8449 8.99039C19.2382 9.4314 18.5601 9.79136 17.8329 10.0586C17.9343 10.2446 18.0272 10.4247 18.1092 10.5948V10.5964C18.1323 10.6439 18.1546 10.6917 18.176 10.7399C19.0955 10.6495 20.0647 10.6825 21.0042 10.7935C21.1293 10.8084 21.2472 10.8244 21.3589 10.8403V10.8403ZM15.6593 6.88112C16.2512 7.61087 16.797 8.36842 17.2942 9.15035C18.0369 8.8942 18.6509 8.57109 19.1453 8.2113C19.3169 8.08755 19.4784 7.95348 19.6287 7.81007C18.7548 7.16688 17.6491 6.81487 16.5071 6.81629C16.2229 6.81612 15.9393 6.83763 15.6593 6.88059V6.88112ZM11.8023 10.0033C12.2161 9.99417 12.6293 9.97236 13.0412 9.93794C14.037 9.86 15.0243 9.71394 15.994 9.5011C15.4872 8.73063 14.94 7.98104 14.3542 7.25472C13.7285 7.52596 13.1768 7.91179 12.7365 8.38603C12.2962 8.86028 11.9776 9.41184 11.8023 10.0033ZM12.7315 13.7435C12.9672 13.4422 13.2769 13.1032 13.688 12.7343C14.571 11.9425 15.6132 11.326 16.8193 10.9859L16.8569 10.9764C16.7567 10.7829 16.6626 10.6102 16.5679 10.4476C15.4529 10.7319 14.2783 10.9094 13.108 11.0013C12.5372 11.0465 12.0252 11.0662 11.6487 11.0694C11.6476 12.0433 12.0303 12.9877 12.7321 13.7435H12.7315ZM18.3321 15.0084C18.0979 13.9748 17.7664 12.9601 17.341 11.9744C16.1251 12.3607 15.1565 12.9257 14.4077 13.5995C14.1055 13.8665 13.8373 14.1614 13.6079 14.479C14.4452 15.0258 15.4624 15.3206 16.5071 15.3192C17.1326 15.32 17.7523 15.2148 18.3321 15.0094V15.0084ZM19.4696 14.4371C20.4177 13.7992 21.0637 12.8777 21.2836 11.849C21.0771 11.8038 20.8154 11.7586 20.5275 11.7236C19.8875 11.6429 19.2381 11.637 18.5963 11.706C18.9577 12.5982 19.2494 13.5108 19.4696 14.4376V14.4371ZM16.5071 16.3821C13.153 16.3821 10.4341 14.0029 10.4341 11.0678C10.4341 8.13265 13.153 5.75342 16.5071 5.75342C19.8613 5.75342 22.5802 8.13265 22.5802 11.0678C22.5802 14.0029 19.8613 16.3821 16.5071 16.3821Z" fill="#2B2B2B"/>
</g>
</g>
<defs>
<filter id="filter0_d_2_476" x="0.0136719" y="0.134766" width="32.9863" height="29.8647" filterUnits="userSpaceOnUse" color-interpolation-filters="sRGB">
<feFlood flood-opacity="0" result="BackgroundImageFix"/>
<feColorMatrix in="SourceAlpha" type="matrix" values="0 0 0 0 0 0 0 0 0 0 0 0 0 0 0 0 0 0 127 0" result="hardAlpha"/>
<feOffset dy="4"/>
<feGaussianBlur stdDeviation="2"/>
<feComposite in2="hardAlpha" operator="out"/>
<feColorMatrix type="matrix" values="0 0 0 0 0 0 0 0 0 0 0 0 0 0 0 0 0 0 0.25 0"/>
<feBlend mode="normal" in2="BackgroundImageFix" result="effect1_dropShadow_2_476"/>
<feBlend mode="normal" in="SourceGraphic" in2="effect1_dropShadow_2_476" result="shape"/>
</filter>
<clipPath id="clip0_2_476">
<rect width="14.5753" height="12.7544" fill="white" transform="translate(9.21924 4.69043)"/>
</clipPath>
</defs>
</svg>
