<svg width="26" height="22" viewBox="0 0 26 22" fill="none" xmlns="http://www.w3.org/2000/svg">
<ellipse cx="12.9043" cy="11.0671" rx="12.4932" ry="10.9324" fill="#FFB400"/>
<g clip-path="url(#clip0_2_472)">
<path d="M18.6996 8.14344C18.9772 9.09046 18.9772 11.0674 18.9772 11.0674C18.9772 11.0674 18.9772 13.0443 18.6996 13.9914C18.5454 14.5148 18.0941 14.9267 17.5227 15.0659C16.4848 15.3189 12.9041 15.3189 12.9041 15.3189C12.9041 15.3189 9.32526 15.3189 8.28555 15.0659C7.71165 14.9246 7.26103 14.5132 7.10859 13.9914C6.83105 13.0443 6.83105 11.0674 6.83105 11.0674C6.83105 11.0674 6.83105 9.09046 7.10859 8.14344C7.26285 7.61998 7.71408 7.20812 8.28555 7.06888C9.32526 6.81592 12.9041 6.81592 12.9041 6.81592C12.9041 6.81592 16.4848 6.81592 17.5227 7.06888C18.0966 7.21024 18.5472 7.62157 18.6996 8.14344V8.14344ZM11.6895 12.9274L15.3333 11.0674L11.6895 9.20738V12.9274Z" fill="#2B2B2B"/>
</g>
<defs>
<clipPath id="clip0_2_472">
<rect width="14.5753" height="12.7544" fill="white" transform="translate(5.61621 4.69043)"/>
</clipPath>
</defs>
</svg>
